<svg xmlns="http://www.w3.org/2000/svg" xmlns:xlink="http://www.w3.org/1999/xlink" width="144" height="144" x="0" y="0" enable-background="new 0 0 144 144" version="1.0" viewBox="0 0 144 144" xml:space="preserve"><g id="template" display="none"><circle cx="72" cy="72" r="36" fill="none" stroke="#fff" stroke-miterlimit="10" stroke-width=".25" display="inline"/><g display="inline"><circle cx="72" cy="72" r="40.5" fill="none" stroke="#fff" stroke-dasharray="1.988 1.988" stroke-linecap="round" stroke-miterlimit="10" stroke-width=".25"/></g><line x1="72" x2="72" y1="18" y2="126" fill="none" stroke="#fff" stroke-miterlimit="10" stroke-width=".25" display="inline"/><line x1="126" x2="18" y1="72" y2="72" fill="none" stroke="#fff" stroke-miterlimit="10" stroke-width=".25" display="inline"/><line x1="110.2" x2="33.8" y1="33.8" y2="110.2" fill="none" stroke="#fff" stroke-miterlimit="10" stroke-width=".25" display="inline"/><line x1="110.2" x2="33.8" y1="110.2" y2="33.8" fill="none" stroke="#fff" stroke-miterlimit="10" stroke-width=".25" display="inline"/></g><g id="icon"><path fill="#221F1F" d="m97.9 102.2h-1.8c-0.5 0-0.9-0.4-0.9-0.9s0.4-0.9 0.9-0.9h1.8c0.5 0 0.9 0.4 0.9 0.9s-0.4 0.9-0.9 0.9zm-5.4 0h-1.8c-0.5 0-0.9-0.4-0.9-0.9s0.4-0.9 0.9-0.9h1.8c0.5 0 0.9 0.4 0.9 0.9s-0.4 0.9-0.9 0.9zm-5.4 0h-1.8c-0.5 0-0.9-0.4-0.9-0.9s0.4-0.9 0.9-0.9h1.8c0.5 0 0.9 0.4 0.9 0.9s-0.4 0.9-0.9 0.9zm-5.3 0h-1.8c-0.5 0-0.9-0.4-0.9-0.9s0.4-0.9 0.9-0.9h1.8c0.5 0 0.9 0.4 0.9 0.9s-0.4 0.9-0.9 0.9zm-5.4 0h-1.8c-0.5 0-0.9-0.4-0.9-0.9s0.4-0.9 0.9-0.9h1.8c0.5 0 0.9 0.4 0.9 0.9s-0.4 0.9-0.9 0.9zm-5.4 0h-1.8c-0.5 0-0.9-0.4-0.9-0.9s0.4-0.9 0.9-0.9h1.8c0.5 0 0.9 0.4 0.9 0.9s-0.4 0.9-0.9 0.9zm-5.4 0h-1.8c-0.5 0-0.9-0.4-0.9-0.9s0.4-0.9 0.9-0.9h1.8c0.5 0 0.9 0.4 0.9 0.9s-0.4 0.9-0.9 0.9zm-5.4 0h-1.8c-0.5 0-0.9-0.4-0.9-0.9s0.4-0.9 0.9-0.9h1.8c0.5 0 0.9 0.4 0.9 0.9s-0.4 0.9-0.9 0.9zm-5.4 0h-1.8c-0.5 0-0.9-0.4-0.9-0.9s0.4-0.9 0.9-0.9h1.8c0.5 0 0.9 0.4 0.9 0.9s-0.4 0.9-0.9 0.9zm-5.4 0h-1.8c-0.5 0-0.9-0.4-0.9-0.9s0.4-0.9 0.9-0.9h1.8c0.5 0 0.9 0.4 0.9 0.9s-0.4 0.9-0.9 0.9zm-5.4-0.1h-0.2c-0.8-0.2-1.5-0.9-1.9-1.7-0.2-0.5 0-1 0.5-1.2s1 0 1.2 0.5c0.1 0.3 0.4 0.5 0.7 0.6 0.5 0.1 0.8 0.6 0.6 1.1-0.1 0.5-0.5 0.7-0.9 0.7zm57.2-0.9c-0.2 0-0.3 0-0.4-0.1-0.4-0.2-0.6-0.8-0.3-1.2 0.1-0.2 0.1-0.3 0.1-0.5v-0.8c0-0.5 0.4-0.9 0.9-0.9s0.9 0.4 0.9 0.9v0.8c0 0.5-0.1 1-0.4 1.4-0.2 0.2-0.5 0.4-0.8 0.4zm-58.6-3.8c-0.5 0-0.9-0.4-0.9-0.9v-1.8c0-0.5 0.4-0.9 0.9-0.9s0.9 0.4 0.9 0.9v1.8c0 0.5-0.4 0.9-0.9 0.9zm58.8-1.5c-0.5 0-0.9-0.4-0.9-0.9v-1.8c0-0.5 0.4-0.9 0.9-0.9s0.9 0.4 0.9 0.9v1.8c0 0.5-0.4 0.9-0.9 0.9zm-58.8-3.9c-0.5 0-0.9-0.4-0.9-0.9v-1.8c0-0.5 0.4-0.9 0.9-0.9s0.9 0.4 0.9 0.9v1.8c0 0.5-0.4 0.9-0.9 0.9zm58.8-1.5c-0.5 0-0.9-0.4-0.9-0.9v-1.8c0-0.5 0.4-0.9 0.9-0.9s0.9 0.4 0.9 0.9v1.8c0 0.5-0.4 0.9-0.9 0.9zm-58.8-3.9c-0.5 0-0.9-0.4-0.9-0.9v-1.8c0-0.5 0.4-0.9 0.9-0.9s0.9 0.4 0.9 0.9v1.8c0 0.5-0.4 0.9-0.9 0.9zm58.8-1.5c-0.5 0-0.9-0.4-0.9-0.9v-1.8c0-0.5 0.4-0.9 0.9-0.9s0.9 0.4 0.9 0.9v1.8c0 0.5-0.4 0.9-0.9 0.9zm-58.8-3.9c-0.5 0-0.9-0.4-0.9-0.9v-1.8c0-0.5 0.4-0.9 0.9-0.9s0.9 0.4 0.9 0.9v1.8c0 0.5-0.4 0.9-0.9 0.9zm58.8-1.5c-0.5 0-0.9-0.4-0.9-0.9v-1.8c0-0.5 0.4-0.9 0.9-0.9s0.9 0.4 0.9 0.9v1.8c0 0.5-0.4 0.9-0.9 0.9zm-58.8-3.9c-0.5 0-0.9-0.4-0.9-0.9v-1.8c0-0.5 0.4-0.9 0.9-0.9s0.9 0.4 0.9 0.9v1.8c0 0.5-0.4 0.9-0.9 0.9zm58.8-1.5c-0.5 0-0.9-0.4-0.9-0.9v-1.8c0-0.5 0.4-0.9 0.9-0.9s0.9 0.4 0.9 0.9v1.8c0 0.5-0.4 0.9-0.9 0.9zm-58.8-3.9c-0.5 0-0.9-0.4-0.9-0.9v-1.8c0-0.5 0.4-0.9 0.9-0.9s0.9 0.4 0.9 0.9v1.8c0 0.5-0.4 0.9-0.9 0.9zm58.8-1.5c-0.5 0-0.9-0.4-0.9-0.9v-1.8c0-0.5 0.4-0.9 0.9-0.9s0.9 0.4 0.9 0.9v1.8c0 0.5-0.4 0.9-0.9 0.9zm-58.8-3.8c-0.5 0-0.9-0.4-0.9-0.9v-1.8c0-0.5 0.4-0.9 0.9-0.9s0.9 0.4 0.9 0.9v1.8c0 0.5-0.4 0.9-0.9 0.9zm58.8-1.6c-0.5 0-0.9-0.4-0.9-0.9v-1.8c0-0.5 0.4-0.9 0.9-0.9s0.9 0.4 0.9 0.9v1.8c0 0.5-0.4 0.9-0.9 0.9zm-58.8-3.8c-0.5 0-0.9-0.4-0.9-0.9v-1.8c0-0.5 0.4-0.9 0.9-0.9s0.9 0.4 0.9 0.9v1.8c0 0.5-0.4 0.9-0.9 0.9zm58.8-1.6c-0.5 0-0.9-0.4-0.9-0.9v-1.8c0-0.5 0.4-0.9 0.9-0.9s0.9 0.4 0.9 0.9v1.8c0 0.5-0.4 0.9-0.9 0.9zm-58.8-3.8c-0.5 0-0.9-0.4-0.9-0.9v-1.8c0-0.5 0.4-0.9 0.9-0.9s0.9 0.4 0.9 0.9v1.8c0 0.5-0.4 0.9-0.9 0.9zm58.8-1.6c-0.5 0-0.9-0.4-0.9-0.9v-1.8c0-0.5 0.4-0.9 0.9-0.9s0.9 0.4 0.9 0.9v1.8c0 0.5-0.4 0.9-0.9 0.9zm-58.8-3.8c-0.5 0-0.9-0.4-0.9-0.9v-1.8c0-0.5 0.4-0.9 0.9-0.9s0.9 0.4 0.9 0.9v1.8c0 0.5-0.4 0.9-0.9 0.9zm58.8-1.5c-0.5 0-0.9-0.4-0.9-0.9v-1.6-0.1c-0.1-0.5 0.3-0.9 0.8-1s0.9 0.3 1 0.8v0.3 1.6c0 0.5-0.4 0.9-0.9 0.9zm-57.6-3.4c-0.3 0-0.7-0.2-0.8-0.5-0.2-0.5 0-1 0.5-1.2 0.4-0.2 0.8-0.2 1.2-0.2h1c0.5 0 0.9 0.4 0.9 0.9s-0.4 0.9-0.9 0.9h-1c-0.2 0-0.3 0-0.4 0.1h-0.5zm55.6-0.2h-1.8c-0.5 0-0.9-0.4-0.9-0.9s0.4-0.9 0.9-0.9h1.8c0.5 0 0.9 0.4 0.9 0.9s-0.4 0.9-0.9 0.9zm-5.3 0h-1.8c-0.5 0-0.9-0.4-0.9-0.9s0.4-0.9 0.9-0.9h1.8c0.5 0 0.9 0.4 0.9 0.9s-0.4 0.9-0.9 0.9zm-5.4 0h-1.8c-0.5 0-0.9-0.4-0.9-0.9s0.4-0.9 0.9-0.9h1.8c0.5 0 0.9 0.4 0.9 0.9s-0.4 0.9-0.9 0.9zm-5.4 0h-1.8c-0.5 0-0.9-0.4-0.9-0.9s0.4-0.9 0.9-0.9h1.8c0.5 0 0.9 0.4 0.9 0.9s-0.4 0.9-0.9 0.9zm-5.4 0h-1.8c-0.5 0-0.9-0.4-0.9-0.9s0.4-0.9 0.9-0.9h1.8c0.5 0 0.9 0.4 0.9 0.9s-0.4 0.9-0.9 0.9zm-5.4 0h-1.8c-0.5 0-0.9-0.4-0.9-0.9s0.4-0.9 0.9-0.9h1.8c0.5 0 0.9 0.4 0.9 0.9s-0.4 0.9-0.9 0.9zm-5.4 0h-1.8c-0.5 0-0.9-0.4-0.9-0.9s0.4-0.9 0.9-0.9h1.8c0.5 0 0.9 0.4 0.9 0.9s-0.4 0.9-0.9 0.9zm-5.4 0h-1.8c-0.5 0-0.9-0.4-0.9-0.9s0.4-0.9 0.9-0.9h1.8c0.5 0 0.9 0.4 0.9 0.9s-0.4 0.9-0.9 0.9zm-5.4 0h-1.8c-0.5 0-0.9-0.4-0.9-0.9s0.4-0.9 0.9-0.9h1.8c0.5 0 0.9 0.4 0.9 0.9s-0.4 0.9-0.9 0.9zm-5.4 0h-1.8c-0.5 0-0.9-0.4-0.9-0.9s0.4-0.9 0.9-0.9h1.8c0.5 0 0.9 0.4 0.9 0.9s-0.4 0.9-0.9 0.9z"/></g></svg>