<svg xmlns="http://www.w3.org/2000/svg" xmlns:cc="http://web.resource.org/cc/" xmlns:svg="http://www.w3.org/2000/svg" id="svg8222" width="48" height="48" version="1.0"><metadata id="metadata8227"/><g id="layer1" style="display:inline"><g id="g16235" transform="matrix(1.4948762,0,0,1.4939816,6.5004927e-2,9.6560765e-2)"><g id="g16223"><rect id="rect12124" width="25.558" height="25.724" x="3.138" y="3.083" style="fill:#000;fill-opacity:1;stroke:#000;stroke-width:.83160913;stroke-miterlimit:4;stroke-dasharray:none;stroke-opacity:1"/><g id="g16213"><g id="g16205"><rect style="fill:none;fill-opacity:1;stroke:#000;stroke-width:.96875;stroke-miterlimit:4;stroke-dasharray:none;stroke-opacity:1" id="rect9205" width="30.031" height="30.031" x=".484" y=".484"/><g id="g16199"><path id="rect9207" d="M 1.422758,30.080975 L 1.422758,1.3834456 L 30.022009,1.3834456" style="fill:none;fill-opacity:1;stroke:#ccf;stroke-width:.92414021;stroke-miterlimit:4;stroke-opacity:1"/><g id="g16087"><path style="fill:none;fill-opacity:1;stroke:#36c;stroke-width:.91024131;stroke-miterlimit:4;stroke-opacity:1" id="path10183" d="M 29.584193,1.8768568 L 29.584193,29.587563 L 1.8533086,29.643159"/><path style="fill:none;fill-opacity:1;stroke:#39c;stroke-width:.853576;stroke-miterlimit:4;stroke-opacity:1" id="rect9209" d="M 2.2891955,29.270132 L 2.2891955,2.2498837 L 29.135913,2.3054793"/></g></g></g><path id="rect13103" d="M 31.519007,1.8152897 L 31.519007,31.495927 L 1.893962,31.495927" style="fill:none;fill-opacity:1;stroke:#999;stroke-width:1.00742173;stroke-miterlimit:4;stroke-opacity:1"/></g></g><g id="g16076"><path style="fill:red;fill-opacity:1;stroke:none;stroke-width:1;stroke-miterlimit:4;stroke-dasharray:none;stroke-opacity:1" id="path16056" d="M -23.0625 16.46875 A 2.46875 2.46875 0 1 1 -28,16.46875 A 2.46875 2.46875 0 1 1 -23.0625 16.46875 z" transform="translate(32,0)"/><path style="fill:#f33;fill-opacity:1;stroke:none;stroke-width:1;stroke-miterlimit:4;stroke-dasharray:none;stroke-opacity:1" id="path16058" d="M -19.0625 20.5625 A 2.5625 2.5625 0 1 1 -24.1875,20.5625 A 2.5625 2.5625 0 1 1 -19.0625 20.5625 z" transform="translate(32,0)"/><path style="fill:#fff;fill-opacity:1;stroke:none;stroke-width:1;stroke-miterlimit:4;stroke-dasharray:none;stroke-opacity:1" id="path16062" d="M -3.9375 21.0625 A 2.125 2.125 0 1 1 -8.1875,21.0625 A 2.125 2.125 0 1 1 -3.9375 21.0625 z" transform="translate(32,0)"/><path style="fill:#fcc;fill-opacity:1;stroke:none;stroke-width:1;stroke-miterlimit:4;stroke-dasharray:none;stroke-opacity:1" id="path16064" d="M -5.125 16 A 2 2 0 1 1 -9.125,16 A 2 2 0 1 1 -5.125 16 z" transform="translate(31,0)"/><path style="fill:#f99;fill-opacity:1;stroke:none;stroke-width:1;stroke-miterlimit:4;stroke-dasharray:none;stroke-opacity:1" id="path16066" d="M -11.0625 19.96875 A 2.09375 2.09375 0 1 1 -15.25,19.96875 A 2.09375 2.09375 0 1 1 -11.0625 19.96875 z" transform="translate(32,0)"/><path style="fill:#f66;fill-opacity:1;stroke:none;stroke-width:1;stroke-miterlimit:4;stroke-dasharray:none;stroke-opacity:1" id="path16068" d="M -13.0625 15.46875 A 2.34375 2.34375 0 1 1 -17.75,15.46875 A 2.34375 2.34375 0 1 1 -13.0625 15.46875 z" transform="translate(31,-1)"/><path style="fill:#f33;fill-opacity:1;stroke:none;stroke-width:1;stroke-miterlimit:4;stroke-dasharray:none;stroke-opacity:1" id="path16070" d="M -15.8125 10.84375 A 2.15625 2.15625 0 1 1 -20.125,10.84375 A 2.15625 2.15625 0 1 1 -15.8125 10.84375 z" transform="translate(30,0)"/><path style="fill:#f99;fill-opacity:1;stroke:none;stroke-width:1;stroke-miterlimit:4;stroke-dasharray:none;stroke-opacity:1" id="path16072" d="M -7.125 11.03125 A 2.03125 2.03125 0 1 1 -11.1875,11.03125 A 2.03125 2.03125 0 1 1 -7.125 11.03125 z" transform="translate(31,0)"/><path style="fill:#f63;fill-opacity:1;stroke:none;stroke-width:1;stroke-miterlimit:4;stroke-dasharray:none;stroke-opacity:1" id="path16074" d="M -9 6.09375 A 1.96875 1.96875 0 1 1 -12.9375,6.09375 A 1.96875 1.96875 0 1 1 -9 6.09375 z" transform="translate(30,0)"/></g></g></g></svg>